<?xml version="1.0" encoding="UTF-8"?>
<svg id="Layer_2" data-name="Layer 2" xmlns="http://www.w3.org/2000/svg" viewBox="0 0 556.36 111.1">
  <defs>
    <style>
      .cls-1 {
        fill: none;
        stroke: #000;
        stroke-miterlimit: 10;
        stroke-width: 5.09px;
      }

      .cls-2 {
        font-family: Montserrat-Bold, Montserrat;
        font-size: 49.6px;
        font-weight: 700;
      }
    </style>
  </defs>
  <g id="Layer_1" data-name="Layer 1">
    <g>
      <text class="cls-2" transform="translate(229.3 47.81)"><tspan x="0" y="0">REZIDENCE</tspan></text>
      <g>
        <line class="cls-1" x1="37.68" y1="102.07" x2="37.68" y2="44.24"/>
        <polyline class="cls-1" points="82.14 20.06 61.06 4.86 37.7 21.98 37.7 44.18 28.22 38.64 2.55 56.9 2.55 102.01 37.68 102.01 57.59 102.01 147.1 102.01 167.96 102.01 201.69 102.01 201.69 57.14 177.58 37.48 167.96 43.23 167.92 43.26 167.92 21.29 144.33 3.25 124.28 19.65"/>
        <polyline class="cls-1" points="63.96 102.01 63.96 34.93 102.7 3.25 140.74 32.15 140.74 102.01"/>
        <line class="cls-1" x1="167.96" y1="102.01" x2="167.92" y2="43.26"/>
        <g>
          <rect x="93.91" y="43.26" width="6.34" height="6.34"/>
          <rect x="103.99" y="43.26" width="6.34" height="6.34"/>
          <rect x="93.91" y="52.63" width="6.34" height="6.34"/>
          <rect x="103.99" y="52.63" width="6.34" height="6.34"/>
        </g>
      </g>
      <text class="cls-2" transform="translate(229.3 97.91)"><tspan x="0" y="0">PĚTIDOMÍ</tspan></text>
    </g>
  </g>
</svg>